<?xml version="1.0" encoding="UTF-8"?>
<svg xmlns="http://www.w3.org/2000/svg" xmlns:xlink="http://www.w3.org/1999/xlink" width="398px" height="312px" viewBox="0 0 298 234" version="1.1" alt="solana">
<g id="surface1">
<path style=" stroke:none;fill-rule:nonzero;fill:currentColor;fill-opacity:1;" d="M 48.394531 178.4375 C 50.214844 176.613281 52.683594 175.589844 55.261719 175.589844 L 292.910156 175.589844 C 297.238281 175.589844 299.40625 180.835938 296.34375 183.898438 L 249.386719 230.898438 C 247.5625 232.722656 245.09375 233.746094 242.515625 233.746094 L 4.867188 233.746094 C 0.539062 233.746094 -1.628906 228.503906 1.433594 225.4375 Z M 48.394531 178.4375 "/>
<path style=" stroke:none;fill-rule:nonzero;fill:currentColor;fill-opacity:1;" d="M 48.394531 2.847656 C 50.214844 1.023438 52.683594 0 55.261719 0 L 292.910156 0 C 297.238281 0 299.40625 5.242188 296.34375 8.308594 L 249.386719 55.308594 C 247.5625 57.132812 245.09375 58.15625 242.515625 58.15625 L 4.867188 58.15625 C 0.539062 58.15625 -1.628906 52.914062 1.433594 49.847656 Z M 48.394531 2.847656 "/>
<path style=" stroke:none;fill-rule:nonzero;fill:currentColor;fill-opacity:1;" d="M 249.386719 90.085938 C 247.5625 88.261719 245.09375 87.234375 242.515625 87.234375 L 4.867188 87.234375 C 0.539062 87.234375 -1.628906 92.480469 1.433594 95.542969 L 48.394531 142.546875 C 50.214844 144.367188 52.683594 145.394531 55.261719 145.394531 L 292.910156 145.394531 C 297.238281 145.394531 299.40625 140.148438 296.34375 137.085938 Z M 249.386719 90.085938 "/>
</g>
</svg>
